<?xml version="1.0" encoding="UTF-8"?>
<svg version="1.1" xmlns="http://www.w3.org/2000/svg" width="120" height="120">
<path d="M0 0 C39.6 0 79.2 0 120 0 C120 39.6 120 79.2 120 120 C80.4 120 40.8 120 0 120 C0 80.4 0 40.8 0 0 Z " fill="#FEFDFD" transform="translate(0,0)"/>
<path d="M0 0 C1.0186338 -0.00074776 1.0186338 -0.00074776 2.05784607 -0.00151062 C3.49098645 0.00082672 4.92413118 0.01053539 6.35717773 0.02709961 C8.55424544 0.05073447 10.75010275 0.04765358 12.94726562 0.04101562 C23.71694742 0.08413492 23.71694742 0.08413492 25.99609375 2.36328125 C26.19140625 5.40234375 26.19140625 5.40234375 26.12109375 8.98828125 C26.10304687 10.17679688 26.085 11.3653125 26.06640625 12.58984375 C26.04320312 13.50507812 26.02 14.4203125 25.99609375 15.36328125 C23.5800415 16.17764712 21.16329377 16.98983522 18.74609375 17.80078125 C18.06417969 18.03087891 17.38226563 18.26097656 16.6796875 18.49804688 C13.47542762 19.57131839 10.29562756 20.62343733 6.99609375 21.36328125 C6.99609375 22.35328125 6.99609375 23.34328125 6.99609375 24.36328125 C6.47660156 24.605625 5.95710938 24.84796875 5.421875 25.09765625 C2.04187048 26.72205769 -0.83372324 28.22404061 -3.75390625 30.61328125 C-6.00390625 32.36328125 -6.00390625 32.36328125 -10.00390625 32.36328125 C-10.07810836 28.28825331 -10.13253195 24.21348733 -10.16870117 20.13793945 C-10.18378022 18.75180206 -10.20424675 17.36571231 -10.23022461 15.97973633 C-10.26664341 13.98669979 -10.28203643 11.99331402 -10.296875 10 C-10.32044067 8.20115356 -10.32044067 8.20115356 -10.34448242 6.3659668 C-10.00390625 3.36328125 -10.00390625 3.36328125 -8.92333984 1.47119141 C-5.96524947 -0.23623852 -3.3905325 -0.00795647 0 0 Z " fill="#4086FB" transform="translate(51.00390625,18.63671875)"/>
<path d="M0 0 C0.71353638 -0.00099701 1.42707275 -0.00199402 2.16223145 -0.00302124 C3.66507149 0.00164252 5.16792969 0.02099701 6.67041016 0.05419922 C8.96269265 0.10143767 11.25032233 0.09531197 13.54296875 0.08203125 C15.00784005 0.0931858 16.47269188 0.10740626 17.9375 0.125 C18.95801453 0.12226578 18.95801453 0.12226578 19.99914551 0.11947632 C23.3505433 0.21866017 25.46934652 0.72689605 28.40893555 2.37060547 C31.07891071 5.42444692 31.05175631 7.00709479 30.95703125 11.0234375 C30.94091797 12.22871094 30.92480469 13.43398438 30.90820312 14.67578125 C30.84536133 16.55716797 30.84536133 16.55716797 30.78125 18.4765625 C30.75869141 19.74628906 30.73613281 21.01601563 30.71289062 22.32421875 C30.65395639 25.45952023 30.57172079 28.59244845 30.46875 31.7265625 C29.54819824 31.8181665 28.62764648 31.90977051 27.67919922 32.00415039 C5.53819628 34.35434039 -12.48700485 46.75809751 -27.53125 62.7265625 C-28.19125 62.3965625 -28.85125 62.0665625 -29.53125 61.7265625 C-21.16856835 53.23844062 -12.78849765 45.14938441 -3.34375 37.8515625 C-2.36019531 37.09101562 -1.37664063 36.33046875 -0.36328125 35.546875 C2.38818669 33.77834526 4.25304277 33.09104851 7.46875 32.7265625 C7.46875 32.0665625 7.46875 31.4065625 7.46875 30.7265625 C11.26953917 29.1494126 15.10428854 27.83015994 19.03125 26.6015625 C20.70380859 26.07175781 20.70380859 26.07175781 22.41015625 25.53125 C25.46875 24.7265625 25.46875 24.7265625 29.46875 24.7265625 C29.35533509 22.24635753 29.22860314 19.76811281 29.09375 17.2890625 C29.0628125 16.58201172 29.031875 15.87496094 29 15.14648438 C28.89594371 13.33417062 28.68955108 11.52838262 28.46875 9.7265625 C25.42178929 8.20308215 22.24794939 8.58444693 18.90625 8.59375 C18.15915771 8.59279327 17.41206543 8.59183655 16.64233398 8.59085083 C15.06201086 8.59017001 13.48168494 8.59201747 11.90136719 8.59619141 C9.4784519 8.60154108 7.055722 8.59624315 4.6328125 8.58984375 C3.09895792 8.59050455 1.56510346 8.59178575 0.03125 8.59375 C-0.69586182 8.59172577 -1.42297363 8.58970154 -2.17211914 8.58761597 C-5.97786501 8.54147587 -5.97786501 8.54147587 -9.53125 9.7265625 C-10.25284424 11.37019384 -10.92476421 13.03706636 -11.53125 14.7265625 C-11.86125 14.7265625 -12.19125 14.7265625 -12.53125 14.7265625 C-13.14169124 7.64544407 -13.14169124 7.64544407 -10.47143555 3.62597656 C-7.45616461 0.13409043 -4.44732915 -0.12040626 0 0 Z " fill="#ECAA22" transform="translate(50.53125,10.2734375)"/>
<path d="M0 0 C0.68383255 0.00424484 1.3676651 0.00848969 2.07221985 0.01286316 C4.25297686 0.02963522 6.43280434 0.06728218 8.61328125 0.10546875 C10.0930856 0.12051761 11.57290445 0.13420567 13.05273438 0.14648438 C16.67738461 0.17953306 20.30149219 0.23130429 23.92578125 0.29296875 C23.92578125 0.62296875 23.92578125 0.95296875 23.92578125 1.29296875 C14.02578125 1.62296875 4.12578125 1.95296875 -6.07421875 2.29296875 C-1.99991939 7.99712628 -1.99991939 7.99712628 0.92578125 9.29296875 C1.21453125 10.03546875 1.50328125 10.77796875 1.80078125 11.54296875 C3.41443564 15.48745726 5.93531599 18.30250349 8.92578125 21.29296875 C8.26578125 21.29296875 7.60578125 21.29296875 6.92578125 21.29296875 C6.92578125 22.28296875 6.92578125 23.27296875 6.92578125 24.29296875 C6.40628906 24.5353125 5.88679688 24.77765625 5.3515625 25.02734375 C1.97155798 26.65174519 -0.90403574 28.15372811 -3.82421875 30.54296875 C-6.07421875 32.29296875 -6.07421875 32.29296875 -10.07421875 32.29296875 C-10.14842086 28.21794081 -10.20284445 24.14317483 -10.23901367 20.06762695 C-10.25409272 18.68148956 -10.27455925 17.29539981 -10.30053711 15.90942383 C-10.33695591 13.91638729 -10.35234893 11.92300152 -10.3671875 9.9296875 C-10.39075317 8.13084106 -10.39075317 8.13084106 -10.41479492 6.2956543 C-10.07421875 3.29296875 -10.07421875 3.29296875 -8.99804688 1.39648438 C-6.01421784 -0.31505207 -3.41195957 -0.0417791 0 0 Z " fill="#59A0FB" transform="translate(51.07421875,18.70703125)"/>
<path d="M0 0 C0.33 0 0.66 0 1 0 C1.10832169 2.08218362 1.18573541 4.16599129 1.25 6.25 C1.29640625 7.41015625 1.3428125 8.5703125 1.390625 9.765625 C1 13 1 13 -0.828125 15.359375 C-5.93876774 19.21993246 -12.22014592 18.22242162 -18.34179688 18.24023438 C-20.36109726 18.24993322 -22.37937612 18.28096756 -24.3984375 18.3125 C-26.3165625 18.32023437 -26.3165625 18.32023437 -28.2734375 18.328125 C-30.02793213 18.34214355 -30.02793213 18.34214355 -31.81787109 18.35644531 C-35.32374456 17.96373584 -37.1767987 17.07005002 -40 15 C-42.7906929 11.41196627 -42.14465334 7.33960021 -42 3 C-41.01 4.485 -41.01 4.485 -40 6 C-38.92817455 7.78885896 -38.92817455 7.78885896 -37 9 C-34.2828467 9.27377804 -31.79999604 9.37298668 -29.0859375 9.328125 C-28.31569244 9.32625183 -27.54544739 9.32437866 -26.75186157 9.32244873 C-25.12619692 9.31573256 -23.5005483 9.30182656 -21.875 9.28125 C-19.37745267 9.25003066 -16.88053581 9.24027281 -14.3828125 9.234375 C-12.80467975 9.22520761 -11.22655345 9.21483267 -9.6484375 9.203125 C-8.89742767 9.19887512 -8.14641785 9.19462524 -7.37265015 9.19024658 C-3.89434278 9.45335428 -3.89434278 9.45335428 -1 8 C-0.76924918 6.65252916 -0.58846937 5.29622435 -0.4375 3.9375 C-0.293125 2.638125 -0.14875 1.33875 0 0 Z " fill="#34B6FB" transform="translate(80,56)"/>
<path d="M0 0 C3.73716178 0.87853713 5.13010387 2.29902003 7.16015625 5.5078125 C8.19961479 10.25839573 7.82987325 13.44922757 5.22265625 17.5703125 C1.10739771 20.17384341 -2.09371787 20.43042389 -6.83984375 19.5078125 C-9.71701993 17.8534362 -10.5091436 16.59029063 -11.46875 13.44921875 C-12.0691149 10.2418639 -12.29103588 7.66768336 -11.09375 4.58984375 C-8.13996931 0.28693139 -4.86369535 -0.37350582 0 0 Z " fill="#737477" transform="translate(41.83984375,90.4921875)"/>
<path d="M0 0 C0.97710937 -0.01417969 1.95421875 -0.02835937 2.9609375 -0.04296875 C5.625 0.1875 5.625 0.1875 8.625 2.1875 C8.8125 4.625 8.8125 4.625 8.625 7.1875 C8.625 8.1775 8.625 9.1675 8.625 10.1875 C8.955 10.5175 9.285 10.8475 9.625 11.1875 C9.3125 14.6875 9.3125 14.6875 8.625 18.1875 C5.87994537 19.56002731 3.62172588 19.31979255 0.5625 19.3125 C-1.06365234 19.31636719 -1.06365234 19.31636719 -2.72265625 19.3203125 C-5.375 19.1875 -5.375 19.1875 -6.375 18.1875 C-6.47486975 15.34414952 -6.51377881 12.53052837 -6.5 9.6875 C-6.50386719 8.88957031 -6.50773437 8.09164062 -6.51171875 7.26953125 C-6.499449 0.0426473 -6.499449 0.0426473 0 0 Z " fill="#727375" transform="translate(58.375,90.8125)"/>
<path d="M0 0 C1.65 0 3.3 0 5 0 C7.875 6.625 7.875 6.625 9 10 C9.20496094 9.36191406 9.40992188 8.72382812 9.62109375 8.06640625 C9.89050781 7.24011719 10.15992188 6.41382812 10.4375 5.5625 C10.83775391 4.32693359 10.83775391 4.32693359 11.24609375 3.06640625 C12 1 12 1 13 0 C14.65 0 16.3 0 18 0 C18 6.27 18 12.54 18 19 C17.01 19 16.02 19 15 19 C14.67 15.04 14.34 11.08 14 7 C13.01 10.96 12.02 14.92 11 19 C9.68 19 8.36 19 7 19 C6.01 15.7 5.02 12.4 4 9 C3.67 12.3 3.34 15.6 3 19 C2.01 19 1.02 19 0 19 C0 12.73 0 6.46 0 0 Z " fill="#747578" transform="translate(9,91)"/>
<path d="M0 0 C1.79244141 0.01740234 1.79244141 0.01740234 3.62109375 0.03515625 C5.41740234 0.04869141 5.41740234 0.04869141 7.25 0.0625 C8.17683594 0.07410156 9.10367188 0.08570312 10.05859375 0.09765625 C10.05859375 1.08765625 10.05859375 2.07765625 10.05859375 3.09765625 C6.75859375 3.09765625 3.45859375 3.09765625 0.05859375 3.09765625 C0.05859375 4.74765625 0.05859375 6.39765625 0.05859375 8.09765625 C3.35859375 8.09765625 6.65859375 8.09765625 10.05859375 8.09765625 C9.72859375 9.08765625 9.39859375 10.07765625 9.05859375 11.09765625 C6.08859375 11.09765625 3.11859375 11.09765625 0.05859375 11.09765625 C0.05859375 12.74765625 0.05859375 14.39765625 0.05859375 16.09765625 C3.35859375 16.09765625 6.65859375 16.09765625 10.05859375 16.09765625 C10.05859375 17.08765625 10.05859375 18.07765625 10.05859375 19.09765625 C7.91282738 19.12451563 5.7669673 19.14398713 3.62109375 19.16015625 C2.42613281 19.17175781 1.23117188 19.18335937 0 19.1953125 C-2.94140625 19.09765625 -2.94140625 19.09765625 -3.94140625 18.09765625 C-4.041276 15.25430577 -4.08018506 12.44068462 -4.06640625 9.59765625 C-4.07027344 8.79972656 -4.07414062 8.00179687 -4.078125 7.1796875 C-4.06616458 0.13499882 -4.06616458 0.13499882 0 0 Z " fill="#717276" transform="translate(99.94140625,90.90234375)"/>
<path d="M0 0 C1.07443359 0.12246094 2.14886719 0.24492187 3.25585938 0.37109375 C5.90454884 0.67716453 8.546033 1.01256394 11.1875 1.375 C10.1975 2.86 10.1975 2.86 9.1875 4.375 C12.4875 4.705 15.7875 5.035 19.1875 5.375 C19.1875 5.705 19.1875 6.035 19.1875 6.375 C18.2588916 6.40005615 17.3302832 6.4251123 16.37353516 6.45092773 C12.93314196 6.54597932 9.49292287 6.64521707 6.05273438 6.74731445 C4.56287359 6.79066589 3.07296305 6.83234084 1.58300781 6.87231445 C-0.55679327 6.93001215 -2.69634385 6.99370755 -4.8359375 7.05859375 C-6.12419434 7.09525146 -7.41245117 7.13190918 -8.73974609 7.16967773 C-11.7252682 7.17030675 -11.7252682 7.17030675 -13.8125 8.375 C-14.53409424 10.01863134 -15.20601421 11.68550386 -15.8125 13.375 C-16.1425 13.375 -16.4725 13.375 -16.8125 13.375 C-17.23376018 8.48838191 -17.40674095 6.48007966 -15.03125 2.0625 C-11.02217376 -2.42965748 -5.40539952 -0.74625552 0 0 Z " fill="#EEB443" transform="translate(54.8125,11.625)"/>
<path d="M0 0 C2 3 2 3 2 5 C2.66 5 3.32 5 4 5 C4 5.99 4 6.98 4 8 C4.99 8.33 5.98 8.66 7 9 C8.0625 10.8125 8.0625 10.8125 9 13 C9.37125 13.7425 9.7425 14.485 10.125 15.25 C10.41375 15.8275 10.7025 16.405 11 17 C11.66 17 12.32 17 13 17 C13 17.66 13 18.32 13 19 C8.54014599 21.91605839 8.54014599 21.91605839 6 23 C3.29791632 22.39953696 2.34275663 21.34023636 0.40625 19.41796875 C-1.60095016 15.96669958 -1.36014313 12.68471939 -1.25 8.8125 C-1.24226563 7.70745117 -1.24226563 7.70745117 -1.234375 6.58007812 C-1.15451389 1.15451389 -1.15451389 1.15451389 0 0 Z " fill="#32A7FB" transform="translate(43,23)"/>
<path d="M0 0 C4.18084291 -0.09922585 8.36105371 -0.17163374 12.54272461 -0.21972656 C13.96374457 -0.23978421 15.38468259 -0.26703778 16.80541992 -0.30175781 C18.85355895 -0.35054011 20.90060275 -0.37302539 22.94921875 -0.390625 C24.17987061 -0.41157227 25.41052246 -0.43251953 26.6784668 -0.45410156 C30.63416878 0.08670003 32.28142059 1.10997289 35 4 C35.3125 7.75 35.3125 7.75 35 11 C34.401875 10.525625 33.80375 10.05125 33.1875 9.5625 C30.0917791 7.35127078 27.47488406 6.86754744 23.76953125 6.68359375 C22.96708984 6.64169922 22.16464844 6.59980469 21.33789062 6.55664062 C20.50451172 6.51732422 19.67113281 6.47800781 18.8125 6.4375 C17.96751953 6.39431641 17.12253906 6.35113281 16.25195312 6.30664062 C14.16815567 6.20068482 12.08409897 6.0998498 10 6 C10 5.67 10 5.34 10 5 C12.05078125 4.77213542 14.1015625 4.54427083 16.15234375 4.31640625 C18.01140229 4.18113386 18.01140229 4.18113386 19 3 C12.73 2.34 6.46 1.68 0 1 C0 0.67 0 0.34 0 0 Z " fill="#EBA718" transform="translate(46,11)"/>
<path d="M0 0 C2.47923801 -0.02685095 4.9581884 -0.04676547 7.4375 -0.0625 C8.14455078 -0.07087891 8.85160156 -0.07925781 9.58007812 -0.08789062 C11.38693559 -0.09653588 13.19387603 -0.05220011 15 0 C16 1 16 1 16.09765625 3.94140625 C16.08605469 5.13636719 16.07445313 6.33132812 16.0625 7.5625 C16.05347656 8.76003906 16.04445313 9.95757812 16.03515625 11.19140625 C16.02355469 12.11824219 16.01195313 13.04507813 16 14 C10.53227497 13.48763975 10.53227497 13.48763975 8.13671875 11.29296875 C7.65847656 10.59816406 7.18023437 9.90335938 6.6875 9.1875 C6.19636719 8.50042969 5.70523438 7.81335938 5.19921875 7.10546875 C4 5 4 5 3.51953125 2.80078125 C3.26236328 1.90939453 3.26236328 1.90939453 3 1 C2.01 0.67 1.02 0.34 0 0 Z " fill="#465FF8" transform="translate(61,20)"/>
<path d="M0 0 C0.33 0 0.66 0 1 0 C1.10832169 2.08218362 1.18573541 4.16599129 1.25 6.25 C1.29640625 7.41015625 1.3428125 8.5703125 1.390625 9.765625 C1 13 1 13 -0.40625 15.40625 C-4.40069217 17.86066627 -8.16490744 17.42608923 -12.75 17.25 C-13.63816406 17.23195313 -14.52632813 17.21390625 -15.44140625 17.1953125 C-17.62870848 17.14827374 -19.81379816 17.08257009 -22 17 C-21.35546875 16.71382812 -20.7109375 16.42765625 -20.046875 16.1328125 C-17.80115872 15.18581338 -17.80115872 15.18581338 -17.25 12.875 C-17.1675 12.25625 -17.085 11.6375 -17 11 C-15.77023438 10.92652344 -15.77023438 10.92652344 -14.515625 10.8515625 C-13.43796875 10.77679688 -12.3603125 10.70203125 -11.25 10.625 C-9.64898437 10.52058594 -9.64898437 10.52058594 -8.015625 10.4140625 C-5.1423725 10.01954856 -3.32957309 9.71421416 -1 8 C-0.30367785 6.04634555 -0.30367785 6.04634555 -0.25 3.875 C-0.1675 2.59625 -0.085 1.3175 0 0 Z " fill="#5054FA" transform="translate(80,56)"/>
<path d="M0 0 C6.625 -0.125 6.625 -0.125 10 1 C11.4375 3.1875 11.4375 3.1875 13 6 C15.11190617 9.29985339 17.07692021 12.36922819 20 15 C14.98546116 16.27927417 14.98546116 16.27927417 12 16 C9.42707985 14.16048583 7.82664719 11.7847864 6.0625 9.1875 C5.58232422 8.53201172 5.10214844 7.87652344 4.60742188 7.20117188 C2.91696629 4.87172885 1.28929298 2.57858596 0 0 Z " fill="#456FFB" transform="translate(54,20)"/>
<path d="M0 0 C1.26026798 2.52053595 0.91874445 3.8542098 0.5625 6.625 C0.46066406 7.44226563 0.35882813 8.25953125 0.25390625 9.1015625 C0.17011719 9.72804688 0.08632813 10.35453125 0 11 C-6.37426409 12.32296047 -6.37426409 12.32296047 -8.9375 11 C-10.58367385 7.90131981 -10.36841966 5.43858351 -10 2 C-7.70989947 -2.31077747 -4.20045325 -1.01122023 0 0 Z " fill="#FAF9FA" transform="translate(44,95)"/>
<path d="M0 0 C1.32 0.33 2.64 0.66 4 1 C4 5.95 4 10.9 4 16 C6.97 16 9.94 16 13 16 C13 16.99 13 17.98 13 19 C8.71 19 4.42 19 0 19 C0 12.73 0 6.46 0 0 Z " fill="#6F7074" transform="translate(80,91)"/>
<path d="M0 0 C9.9 0 19.8 0 30 0 C30 0.33 30 0.66 30 1 C26.04 1 22.08 1 18 1 C17.67 2.65 17.34 4.3 17 6 C20.96 6.33 24.92 6.66 29 7 C29 7.33 29 7.66 29 8 C19.43 8 9.86 8 0 8 C0 7.67 0 7.34 0 7 C4.455 6.505 4.455 6.505 9 6 C9.33 4.35 9.66 2.7 10 1 C6.7 1 3.4 1 0 1 C0 0.67 0 0.34 0 0 Z " fill="#96BFFA" transform="translate(45,66)"/>
<path d="M0 0 C1.65 0 3.3 0 5 0 C5 6.27 5 12.54 5 19 C4.01 19 3.02 19 2 19 C1.67 15.04 1.34 11.08 1 7 C0.34 8.98 -0.32 10.96 -1 13 C-1.66 12.67 -2.32 12.34 -3 12 C-2.88541307 10.56163249 -2.75790884 9.12429034 -2.625 7.6875 C-2.55539063 6.88699219 -2.48578125 6.08648437 -2.4140625 5.26171875 C-2 3 -2 3 0 0 Z " fill="#707074" transform="translate(22,91)"/>
<path d="M0 0 C0.33 0 0.66 0 1 0 C1.02578125 1.24136719 1.0515625 2.48273437 1.078125 3.76171875 C1.13442082 5.40368028 1.19176783 7.045606 1.25 8.6875 C1.26417969 9.50412109 1.27835938 10.32074219 1.29296875 11.16210938 C1.50302375 16.35046785 2.12890697 19.19858665 6 23 C6.70125 22.71125 7.4025 22.4225 8.125 22.125 C11.05452503 20.97866412 14.00921653 19.97374346 17 19 C17 19.66 17 20.32 17 21 C16.48050781 21.24234375 15.96101563 21.4846875 15.42578125 21.734375 C12.04577673 23.35877644 9.17018301 24.86075936 6.25 27.25 C4 29 4 29 0 29 C0 19.43 0 9.86 0 0 Z " fill="#93D5EE" transform="translate(41,22)"/>
<path d="M0 0 C1 2 1 2 0.36328125 3.9375 C-1.36045664 6.54533268 -3.09154486 7.4702097 -5.8125 9 C-11.39961756 12.38322818 -15.92486424 16.38433066 -20.58325195 20.91210938 C-23.26273586 23.4969546 -25.62620794 25.44623833 -29 27 C-24.65343246 21.75157055 -20.04785058 17.01604539 -15.0625 12.375 C-14.38509766 11.73304687 -13.70769531 11.09109375 -13.00976562 10.4296875 C-8.88253833 6.56758411 -4.67343119 3.18061419 0 0 Z " fill="#EDB037" transform="translate(50,46)"/>
<path d="M0 0 C1.32 0.33 2.64 0.66 4 1 C4 6.61 4 12.22 4 18 C2.68 18.33 1.36 18.66 0 19 C0 12.73 0 6.46 0 0 Z " fill="#78787D" transform="translate(72,91)"/>
<path d="M0 0 C1.47906892 -0.02689216 2.95827483 -0.04634621 4.4375 -0.0625 C5.26121094 -0.07410156 6.08492188 -0.08570312 6.93359375 -0.09765625 C9 0 9 0 10 1 C10.07258946 3.18639453 10.08373783 5.37500389 10.0625 7.5625 C10.05347656 8.76003906 10.04445313 9.95757812 10.03515625 11.19140625 C10.02355469 12.11824219 10.01195313 13.04507813 10 14 C7.40630683 10.8255451 5.0000076 7.61364794 2.75 4.1875 C2.22921875 3.39730469 1.7084375 2.60710938 1.171875 1.79296875 C0.78515625 1.20128906 0.3984375 0.60960938 0 0 Z " fill="#474EFA" transform="translate(67,20)"/>
<path d="M0 0 C2 3 2 3 2 5 C2.66 5 3.32 5 4 5 C4 5.99 4 6.98 4 8 C4.99 8.33 5.98 8.66 7 9 C8.0625 10.8125 8.0625 10.8125 9 13 C9.37125 13.7425 9.7425 14.485 10.125 15.25 C10.41375 15.8275 10.7025 16.405 11 17 C11.66 17 12.32 17 13 17 C13 17.66 13 18.32 13 19 C11.68 19 10.36 19 9 19 C9 18.01 9 17.02 9 16 C8.01 15.67 7.02 15.34 6 15 C4.9645539 13.2526847 3.93439702 11.50037967 2.98828125 9.703125 C2.04072759 7.86816197 2.04072759 7.86816197 0.1875 6.375 C-0.204375 5.92125 -0.59625 5.4675 -1 5 C-0.6875 2.3125 -0.6875 2.3125 0 0 Z " fill="#3CA0FC" transform="translate(43,23)"/>
<path d="M0 0 C1.32 0.99 2.64 1.98 4 3 C3.67 5.31 3.34 7.62 3 10 C1.02 10.33 -0.96 10.66 -3 11 C-3 10.34 -3 9.68 -3 9 C-4.65 9 -6.3 9 -8 9 C-8 8.67 -8 8.34 -8 8 C-4.535 7.505 -4.535 7.505 -1 7 C-0.67 4.69 -0.34 2.38 0 0 Z " fill="#77787B" transform="translate(64,99)"/>
<path d="M0 0 C5.75 -0.125 5.75 -0.125 8 1 C8 2.32 8 3.64 8 5 C5.35541621 6.32229189 3.32238699 6.09677194 0.375 6.0625 C-0.62789062 6.05347656 -1.63078125 6.04445313 -2.6640625 6.03515625 C-3.43492188 6.02355469 -4.20578125 6.01195313 -5 6 C-4.35546875 5.71382813 -3.7109375 5.42765625 -3.046875 5.1328125 C-0.80115872 4.18581338 -0.80115872 4.18581338 -0.25 1.875 C-0.1675 1.25625 -0.085 0.6375 0 0 Z " fill="#446FFB" transform="translate(63,67)"/>
<path d="M0 0 C4.00972202 3.67557852 6.45335415 7.18966896 9 12 C7.68 12.33 6.36 12.66 5 13 C0.07692308 7.95384615 0.07692308 7.95384615 -0.3125 3.125 C-0.209375 2.09375 -0.10625 1.0625 0 0 Z " fill="#38B2FC" transform="translate(42,33)"/>
<path d="M0 0 C1.32 0 2.64 0 4 0 C6 3 6 3 5.625 6.1875 C5.41875 7.115625 5.2125 8.04375 5 9 C3.68 9 2.36 9 1 9 C-1.09230769 4.56923077 -1.09230769 4.56923077 -0.625 1.6875 C-0.41875 1.130625 -0.2125 0.57375 0 0 Z " fill="#797A7E" transform="translate(15,101)"/>
<path d="M0 0 C0.33 0 0.66 0 1 0 C1 1.98 1 3.96 1 6 C1.66 6 2.32 6 3 6 C3 9.96 3 13.92 3 18 C2.01 18 1.02 18 0 18 C0 12.06 0 6.12 0 0 Z " fill="#66666A" transform="translate(9,92)"/>
<path d="M0 0 C0.33 0 0.66 0 1 0 C1 5.94 1 11.88 1 18 C0.01 18 -0.98 18 -2 18 C-2 14.04 -2 10.08 -2 6 C-1.67 6 -1.34 6 -1 6 C-0.67 4.02 -0.34 2.04 0 0 Z " fill="#66656B" transform="translate(26,92)"/>
<path d="M0 0 C0.99 1.485 0.99 1.485 2 3 C3.64155367 4.77834981 4.82635771 5.91317885 7 7 C5.84826645 9.46800047 4.95216435 11.04783565 3 13 C-0.36055646 8.51925805 -0.27429625 5.39449293 0 0 Z " fill="#4DCBF7" transform="translate(38,59)"/>
<path d="M0 0 C2.475 0.99 2.475 0.99 5 2 C5 6.95 5 11.9 5 17 C4.34 17 3.68 17 3 17 C2.95101562 16.10796875 2.90203125 15.2159375 2.8515625 14.296875 C2.77679688 13.12640625 2.70203125 11.9559375 2.625 10.75 C2.55539063 9.58984375 2.48578125 8.4296875 2.4140625 7.234375 C2.03751692 4.29305666 1.5225877 2.50050989 0 0 Z " fill="#FAF8F4" transform="translate(75,18)"/>
<path d="M0 0 C2.31 0 4.62 0 7 0 C7.5625 1.9375 7.5625 1.9375 8 4 C7 5 7 5 3.4375 5.0625 C2.303125 5.041875 1.16875 5.02125 0 5 C0 3.35 0 1.7 0 0 Z " fill="#FCFCFC" transform="translate(56,102)"/>
<path d="M0 0 C2.31 0 4.62 0 7 0 C6.67 1.65 6.34 3.3 6 5 C4.02 5 2.04 5 0 5 C0 3.35 0 1.7 0 0 Z " fill="#F7F7F7" transform="translate(56,94)"/>
<path d="M0 0 C2.31 0 4.62 0 7 0 C7.042721 1.66611905 7.04063832 3.33382885 7 5 C6 6 6 6 3.4375 6.0625 C2.2309375 6.0315625 2.2309375 6.0315625 1 6 C1.33 4.68 1.66 3.36 2 2 C1.34 2 0.68 2 0 2 C0 1.34 0 0.68 0 0 Z " fill="#36A3FB" transform="translate(48,67)"/>
<path d="M0 0 C1.98 0 3.96 0 6 0 C6.33 0.66 6.66 1.32 7 2 C6.34 2 5.68 2 5 2 C5 2.66 5 3.32 5 4 C5.66 4.33 6.32 4.66 7 5 C4.69 5.33 2.38 5.66 0 6 C0.66 5.67 1.32 5.34 2 5 C2 3.68 2 2.36 2 1 C1.34 0.67 0.68 0.34 0 0 Z " fill="#465EF8" transform="translate(69,67)"/>
<path d="M0 0 C0.99 0.33 1.98 0.66 3 1 C2.34 2.65 1.68 4.3 1 6 C-0.98 6 -2.96 6 -5 6 C-4.360625 5.7525 -3.72125 5.505 -3.0625 5.25 C-0.81258459 4.18437567 -0.81258459 4.18437567 -0.25 1.875 C-0.1675 1.25625 -0.085 0.6375 0 0 Z " fill="#417CFC" transform="translate(63,67)"/>
</svg>
