<?xml version="1.0" encoding="UTF-8"?>
<svg xmlns="http://www.w3.org/2000/svg" xmlns:xlink="http://www.w3.org/1999/xlink" width="32px" height="32px" viewBox="0 0 32 31" version="1.1">
<g id="surface1">
<path style=" stroke:none;fill-rule:nonzero;fill:rgb(29.803923%,69.01961%,31.37255%);fill-opacity:1;" d="M 0 0 C 10.558594 0 21.121094 0 32 0 C 32 10.230469 32 20.460938 32 31 C 21.441406 31 10.878906 31 0 31 C 0 20.769531 0 10.539062 0 0 Z M 0 0 "/>
<path style=" stroke:none;fill-rule:nonzero;fill:rgb(99.215686%,99.607843%,99.215686%);fill-opacity:1;" d="M 0 0 C 10.558594 0 21.121094 0 32 0 C 32 10.230469 32 20.460938 32 31 C 21.441406 31 10.878906 31 0 31 C 0 20.769531 0 10.539062 0 0 Z M 5.339844 5.945312 C 2.40625 9.28125 1.550781 12.957031 1.789062 17.246094 C 2.011719 20.050781 3.261719 22.574219 5.148438 24.667969 C 5.320312 24.882812 5.492188 25.097656 5.667969 25.316406 C 7.484375 27.441406 10.664062 29.007812 13.425781 29.472656 C 16.53125 29.734375 19.527344 29.707031 22.378906 28.378906 C 22.609375 28.273438 22.84375 28.167969 23.082031 28.058594 C 26.648438 26.234375 28.917969 23.160156 30.222656 19.507812 C 31.082031 16.523438 30.988281 13.113281 29.761719 10.261719 C 29.671875 10.042969 29.582031 9.824219 29.492188 9.597656 C 28.648438 7.75 27.410156 6.425781 25.957031 5.019531 C 25.828125 4.886719 25.695312 4.757812 25.5625 4.621094 C 23.113281 2.335938 19.148438 1.199219 15.832031 1.265625 C 11.773438 1.558594 8.183594 3.042969 5.339844 5.945312 Z M 5.339844 5.945312 "/>
<path style=" stroke:none;fill-rule:nonzero;fill:rgb(98.431373%,99.215686%,98.431373%);fill-opacity:1;" d="M 11.859375 7.421875 C 12.296875 7.890625 12.296875 7.890625 12.683594 8.472656 C 12.816406 8.664062 12.945312 8.855469 13.078125 9.050781 C 13.878906 10.328125 13.878906 10.328125 13.859375 11.011719 C 13.648438 11.570312 13.648438 11.570312 13.078125 12.089844 C 12.476562 12.625 12.476562 12.625 12.363281 13.371094 C 12.808594 15.542969 15.207031 17.464844 16.9375 18.789062 C 17.75 19.25 18.105469 19.425781 19.019531 19.210938 C 19.199219 18.996094 19.382812 18.777344 19.566406 18.554688 C 20.140625 17.902344 20.140625 17.902344 20.863281 17.804688 C 21.835938 17.914062 22.46875 18.25 23.257812 18.773438 C 23.457031 18.898438 23.457031 18.898438 23.65625 19.027344 C 23.980469 19.230469 24.296875 19.4375 24.617188 19.648438 C 24.578125 21.101562 24.285156 22.25 23.273438 23.359375 C 22.265625 23.976562 21.289062 23.960938 20.140625 23.796875 C 15.371094 22.332031 11.199219 18.507812 8.875 14.246094 C 8.753906 14.011719 8.628906 13.777344 8.503906 13.535156 C 8.417969 13.375 8.332031 13.210938 8.242188 13.042969 C 7.679688 11.8125 7.664062 10.492188 7.832031 9.167969 C 8.339844 8.136719 9.195312 7.792969 10.222656 7.335938 C 10.875 7.171875 11.226562 7.195312 11.859375 7.421875 Z M 11.859375 7.421875 "/>
<path style=" stroke:none;fill-rule:nonzero;fill:rgb(94.901961%,97.647059%,94.901961%);fill-opacity:1;" d="M 17.214844 7.996094 C 18.957031 8.011719 20.128906 8.722656 21.539062 9.648438 C 22.980469 11.082031 23.90625 12.804688 23.972656 14.832031 C 23.960938 15.050781 23.953125 15.273438 23.945312 15.5 C 23.5 15.609375 23.5 15.609375 23.050781 15.71875 C 22.988281 15.507812 22.929688 15.296875 22.867188 15.078125 C 22.824219 14.9375 22.78125 14.796875 22.738281 14.652344 C 22.648438 14.34375 22.5625 14.03125 22.484375 13.71875 C 22.078125 12.265625 21.320312 11.230469 20.140625 10.261719 C 19.140625 9.707031 18.148438 9.390625 17.007812 9.277344 C 16.675781 9.222656 16.675781 9.222656 16.335938 9.167969 C 16.015625 8.71875 16.015625 8.71875 15.886719 8.296875 C 16.261719 7.929688 16.703125 8.015625 17.214844 7.996094 Z M 17.214844 7.996094 "/>
<path style=" stroke:none;fill-rule:nonzero;fill:rgb(94.509804%,97.254902%,94.509804%);fill-opacity:1;" d="M 16.113281 11.132812 C 17.441406 11.027344 18.371094 11.25 19.46875 12.007812 C 20.554688 13.015625 20.773438 14.074219 20.8125 15.5 C 20.515625 15.570312 20.21875 15.644531 19.917969 15.71875 C 19.863281 15.570312 19.808594 15.421875 19.75 15.269531 C 19.21875 13.773438 19.21875 13.773438 18.125 12.660156 C 17.464844 12.40625 16.796875 12.195312 16.113281 12.007812 C 16.113281 11.71875 16.113281 11.429688 16.113281 11.132812 Z M 16.113281 11.132812 "/>
</g>
</svg>
